<svg width="24.000000" height="24.000000" viewBox="0 0 24 24" fill="none" xmlns="http://www.w3.org/2000/svg" xmlns:xlink="http://www.w3.org/1999/xlink">
	<desc>
			Created with Pixso.
	</desc>
	<defs/>
	<rect id="Games" width="24.000000" height="24.000000" fill="#FFFFFF" fill-opacity="0"/>
	<path id="Union" d="M13.63 1.64999L13.64 0.709991C13.64 0.320007 13.34 0 12.95 0L12.94 0C12.56 0 12.25 0.309998 12.24 0.690002L12.23 1.63C12.23 1.76001 12.13 1.85999 11.98 1.85999C11.09 1.85999 10.36 2.59 10.36 3.48999C10.36 3.56998 10.37 3.64996 10.38 3.71997L7.35 3.71997C4.4 3.71997 2 6.11996 2 9.06998L2 14.65C2 17.6 4.4 20 7.35 20L16.65 20C19.6 20 22 17.6 22 14.65L22 9.06998C22 6.11996 19.6 3.71997 16.65 3.71997L11.9861 3.71997C11.858 3.71802 11.76 3.61871 11.76 3.48999C11.76 3.35999 11.85 3.26001 12 3.26001C12.89 3.26001 13.62 2.53 13.63 1.64999ZM14.5 10.02C14.5 9.46997 14.95 9.01996 15.5 9.01996C16.05 9.01996 16.5 9.46997 16.5 10.02C16.5 10.57 16.05 11.03 15.5 11.03C14.95 11.03 14.5 10.59 14.5 10.04L14.5 10.02ZM10.13 14.07C9.98 14.22 9.79 14.29 9.6 14.29C9.41 14.29 9.22 14.22 9.07 14.07L8.04 13.04L7.05 14.03C6.9 14.18 6.71 14.25 6.52 14.25C6.33 14.25 6.14 14.18 5.99 14.03C5.7 13.74 5.7 13.26 5.99 12.97L6.98 11.98L6.02 11.02C5.73 10.73 5.73 10.25 6.02 9.95996C6.31 9.66998 6.79 9.66998 7.08 9.95996L8.04 10.92L9.03 9.92996C9.32 9.63998 9.8 9.63998 10.09 9.92996C10.38 10.22 10.38 10.7 10.09 10.99L9.1 11.98L10.13 13.01C10.42 13.3 10.42 13.78 10.13 14.07ZM13.54 13C12.99 13 12.53 12.55 12.53 12C12.53 11.45 12.97 11 13.52 11L13.54 11C14.09 11 14.54 11.45 14.54 12C14.54 12.55 14.1 13 13.54 13ZM17.48 13C16.93 13 16.47 12.55 16.47 12C16.47 11.45 16.91 11 17.46 11L17.48 11C18.03 11 18.48 11.45 18.48 12C18.48 12.55 18.04 13 17.48 13ZM15.5 14.97C14.95 14.97 14.5 14.53 14.5 13.98L14.5 13.96C14.5 13.41 14.95 12.96 15.5 12.96C16.05 12.96 16.5 13.41 16.5 13.96C16.5 14.51 16.06 14.97 15.5 14.97Z" clip-rule="evenodd" fill="#BDFE00" fill-opacity="1.000000" fill-rule="evenodd"/>
</svg>
