<!DOCTYPE svg PUBLIC "-//W3C//DTD SVG 1.1//EN" "http://www.w3.org/Graphics/SVG/1.1/DTD/svg11.dtd">
<!-- Uploaded to: SVG Repo, www.svgrepo.com, Transformed by: SVG Repo Mixer Tools -->
<svg fill="#ff00d0" width="800px" height="800px" viewBox="0 0 256 256" id="Flat" xmlns="http://www.w3.org/2000/svg" stroke="#ff00d0">
<g id="SVGRepo_bgCarrier" stroke-width="0"/>
<g id="SVGRepo_tracerCarrier" stroke-linecap="round" stroke-linejoin="round"/>
<g id="SVGRepo_iconCarrier"> <path d="M212,96a84,84,0,1,0-96,83.12891V196H88a12,12,0,0,0,0,24h28v20a12,12,0,0,0,24,0V220h28a12,12,0,0,0,0-24H140V179.12891A84.119,84.119,0,0,0,212,96ZM68,96a60,60,0,1,1,60,60A60.06812,60.06812,0,0,1,68,96Z"/> </g>
</svg>